<svg xmlns="http://www.w3.org/2000/svg" viewBox="0 0 50 50">
  <defs>
    <style>
      .cls-1 {
        fill: #00a1e0;
      }
    </style>
  </defs>
  <title>fxunivers-logo</title>
  <g id="three">
    <path class="cls-1" d="M25,1.7a22.2,22.2,0,0,1,9.1,1.9,23.9,23.9,0,0,1,7.4,4.9,23.9,23.9,0,0,1,4.9,7.4,22.7,22.7,0,0,1,0,18.2,23.9,23.9,0,0,1-4.9,7.4,23.9,23.9,0,0,1-7.4,4.9,22.7,22.7,0,0,1-18.2,0,23.9,23.9,0,0,1-7.4-4.9,23.9,23.9,0,0,1-4.9-7.4,22.7,22.7,0,0,1,0-18.2A23.9,23.9,0,0,1,8.5,8.5a23.9,23.9,0,0,1,7.4-4.9A22.2,22.2,0,0,1,25,1.7M25,0h0A25,25,0,0,0,0,25H0A25,25,0,0,0,25,50h0A25,25,0,0,0,50,25h0A25,25,0,0,0,25,0Z"/>
    <path class="cls-1" d="M33.7,35l1.9,1.8-4.4,4.4-1.8-1.8L25,35l-4.4-4.4-4.3-4.3-4.4-4.4,4.4-4.3L25,8.8l4.4,4.4-8.8,8.7L25,26.3l4.4-4.4a6.2,6.2,0,0,1,8.7,0l-8.7,8.7Z"/>
    <path class="cls-1" d="M21.8,38.2l-1.2,1.2a6.2,6.2,0,0,1-8.7,0l5.6-5.6Z"/>
  </g>
</svg>
