<svg id="Layer_1" data-name="Layer 1" xmlns="http://www.w3.org/2000/svg" viewBox="0 0 16 16"><title>fxuniverse</title><path d="M4.4,4.7,1.1,4A8,8,0,0,1,7.8,0C6.3.2,5,2,4.4,4.7Z"/><path d="M9.9,4.8H6.1C6.6,2.9,7.5,1.7,8,1.7S9.4,2.9,9.9,4.8Z"/><path d="M14.9,4a23.6,23.6,0,0,1-3.3.7C11,2,9.7.2,8.2,0A8,8,0,0,1,14.9,4Z"/><path d="M4.1,9.7a20.2,20.2,0,0,0-3.7.7A6.4,6.4,0,0,1,0,8,6.1,6.1,0,0,1,.4,5.6a20.2,20.2,0,0,0,3.7.7A9.7,9.7,0,0,0,4,8,9.7,9.7,0,0,0,4.1,9.7Z"/><path d="M7.8,16a8,8,0,0,1-6.7-4l3.3-.7C5,14,6.3,15.8,7.8,16Z"/><path d="M8,14.3c-.5,0-1.4-1.2-1.9-3.1H9.9C9.4,13.1,8.5,14.3,8,14.3Z"/><path d="M5.8,9.5A7.6,7.6,0,0,1,5.7,8a7.6,7.6,0,0,1,.1-1.5h4.4A7.6,7.6,0,0,1,10.3,8a7.6,7.6,0,0,1-.1,1.5H5.8Z"/><path d="M11.6,11.3a23.6,23.6,0,0,1,3.3.7,8,8,0,0,1-6.7,4C9.7,15.8,11,14,11.6,11.3Z"/><path d="M16,8a7.3,7.3,0,0,1-.4,2.5,14.3,14.3,0,0,0-3.7-.8A9.7,9.7,0,0,0,12,8a9.7,9.7,0,0,0-.1-1.7,14.3,14.3,0,0,0,3.7-.8A6.9,6.9,0,0,1,16,8Z"/></svg>