<svg id="Layer_1" data-name="Layer 1" xmlns="http://www.w3.org/2000/svg" viewBox="0 0 599 247.1"><title>univers</title><path d="M167.4,108h-.1v-1c.5.1.9-.1,1.1-1.1v-.2c-.3-2.8-.7-5.9-2.3-8.3a1.1,1.1,0,0,0-1,.1,1.9,1.9,0,0,0-.3,1.3h-1a2.3,2.3,0,0,1,.7-2.1,2.1,2.1,0,0,1,2.1-.2h.3c1.8,2.6,2.1,5.9,2.5,8.9v.4h0A2,2,0,0,1,167.4,108Z"/><path d="M264.2,246.6c-.5-14-5.6-31-15.8-37.4-6.8-4.3-11.6-5.9-17.1-7.9-3.3-1.1-6.6-2.3-10.8-4.1a40.9,40.9,0,0,0-5-1.7c-2.1-.6-4.5-1.4-7.1-2.4-5.4-2.1-11.1-8.8-10.9-16-2.3-8.1-9.6-19.3-14.4-23.6s-4.3-3.9-5.4-6.4c-.3-.5-.5-1.2-1-2.1a55.3,55.3,0,0,1-2.1-5.5,63.8,63.8,0,0,0-3.1-7.5c-3.1-5.9-5.4-15.3-6.2-21.6-.5-1.3-.9-2.7-1.4-4.1s-.9-2.6-1.3-3.7a2.8,2.8,0,0,1,.6-3.2l.8-1,.6-1,.3,1.1a31.4,31.4,0,0,0,1.3,4,22.2,22.2,0,0,1,1.7,5.6c.2,1.1.4,2.4.7,3.8s.5,2.9.8,4.4h0c2.6,5.9,7.5,17.7,9.4,22.5,1.1,2.8,1.4,3,2,3.4a5.5,5.5,0,0,1,2,1.8c7.4,7.6,15.5,16.8,16.7,28.4l-1,.2c-2.2-8-11.8-20.6-15.9-24.2s-4-4-4.7-5.3l-.5-1a8.3,8.3,0,0,1-1.2-3.1c0-.2-.1-.3-.1-.4-.9-2.2-2.4-5.2-3.2-7l-.4-.8c-2.5-5.4-3.9-13.1-4.9-18.7-.2-1.4-.5-2.7-.7-3.9a26.1,26.1,0,0,0-1.6-5.4,16.2,16.2,0,0,1-1.1-3l-.2.2a1.9,1.9,0,0,0-.5,2.3,38.5,38.5,0,0,1,1.3,3.7c.5,1.4,1,2.8,1.4,4.1h.1c.8,6.2,3.1,15.5,6.1,21.3a55.5,55.5,0,0,1,3.1,7.6,39.4,39.4,0,0,0,2.2,5.5l.9,2.1c1,2.4,1.1,2.5,5.1,6.1s12.5,15.8,14.8,24.1h0c-.2,6.8,5.1,13.1,10.3,15.1a70.8,70.8,0,0,0,7,2.3c2,.7,3.8,1.2,5.1,1.8,4.1,1.8,7.5,2.9,10.7,4.1a73.1,73.1,0,0,1,17.3,7.9c10.5,6.6,15.8,24,16.3,38.3ZM170.4,121.1a56.4,56.4,0,0,0,3,9.3l.4.7c.8,1.9,2.3,4.9,3.2,7.1l.2.6a7.2,7.2,0,0,0,1,2.8,4.1,4.1,0,0,1,.6,1.1c.6,1.2,1,1.9,4.5,4.9s10.3,11.8,14.1,19.4c-2.8-8.8-9.3-16.1-15.4-22.3a6.2,6.2,0,0,0-1.7-1.7c-.8-.5-1.3-.9-2.4-3.8S173,127.3,170.4,121.1Z"/><path d="M298.6,232.5l-1.2-2.9a141.7,141.7,0,0,1-5.2-14.6c-.9-3.1-1.9-6.3-3-9.4h-.1v-.2a19.7,19.7,0,0,0,.1-4.2,46.8,46.8,0,0,0-5.4-8c-5.9,7.6-15.3,9.2-23.7,9.6s-13.1-2.2-17.5-5.3-9.1-6.8-11.8-10.6c-2.3-2.2-4.7-4.2-7-6.3s-6.6-5.8-9.8-8.8l-5.8-5.4c-5.5-5.1-11.2-10.3-17.2-15.2h-.2v-.2c-.5-6.3.3-9.8,2.6-11.5s5.9-1.3,11.4,1c9.6,4,16.7,11.9,23.1,18.9l3.2,3.6c6.5,7,12.2,7.6,20.2,7.7.7,0,.9-.1,1.3-.8a19,19,0,0,1-6.1-1.6,16.9,16.9,0,0,0-4.2-1.5c-3.7-.9-4.3-1.6-4.9-2.5a4.7,4.7,0,0,0-2.3-1.9,14.7,14.7,0,0,0-3-1.8l-2.7-1.5c-2.8-1.7-4-2.4-6.9-6.8a93.9,93.9,0,0,0-13.4-15.5c-4.1-3.5-10.2-8.3-13.9-10.8s-4.7-3-7.4-3.7a7.6,7.6,0,0,0,1,1.4,12.1,12.1,0,0,1,1,1.6,11.4,11.4,0,0,0,1,2c1.3,2.3,7.3,7.2,10.6,8.7l2.3,1h-2.5c-7.6-.2-12.7-8.4-14.1-11l-.3-.4c-.7-1.5-1.4-2.9-.7-3.8h.1l-.2-.5a7.8,7.8,0,0,0-2.3-3.1,13.9,13.9,0,0,1-3.4-6.2,33.4,33.4,0,0,0-2.2-7.1c-2.7-5.4-5.7-8.6-11.4-7.1l-.3-.9c6.8-1.8,10.1,2.5,12.6,7.5a43.5,43.5,0,0,1,2.3,7.4,13.1,13.1,0,0,0,3.1,5.7,9.3,9.3,0,0,1,2.5,3.4l.3.6h.7c3,.6,4.2,1.4,7.8,3.8a153.4,153.4,0,0,1,14,10.9c4.5,3.8,11,11.6,13.7,15.6s3.8,4.9,6.5,6.5l2.7,1.5a16.9,16.9,0,0,1,3,1.8,5.4,5.4,0,0,1,2.6,2.2c.5.7.8,1.2,4.3,2.1a31.6,31.6,0,0,1,4.4,1.5c2.7,1.2,5.1,2.2,14.1,1.7,5.8-.4,12.7,3.1,18.5,9.1s10.2,14.9,10.7,22.9c4.4,8,7.1,17.3,8.1,28.6Zm-8.5-27.2c1.2,3.2,2.1,6.3,3.1,9.4s2.3,7.6,3.7,11.2a70.6,70.6,0,0,0-6.6-22.9A16.4,16.4,0,0,1,290.1,205.3Zm-98.3-54.8c6,4.8,11.6,10,17.1,15.1,1.9,1.8,3.8,3.6,5.8,5.3s6.5,6,9.7,8.8l7.1,6.3h.1c2.6,3.8,6.3,7.1,11.6,10.5s9.9,6.2,16.8,5.1c8.4-.4,17.7-2,23.4-9.7l.4-.5.4.5a45.4,45.4,0,0,1,4.8,6.7,37,37,0,0,0-10.2-20.1c-5.6-5.8-12.3-9.1-17.8-8.8a47.3,47.3,0,0,1-7.6,0h.2c-.6,1-.9,1.5-2.3,1.5-8.3-.1-14.1-.7-21-8.1l-3.2-3.5c-6.2-6.9-13.3-14.8-22.6-18.7-5.2-2.1-8.6-2.4-10.5-1S191.4,144.8,191.8,150.5Zm-5-28a10.8,10.8,0,0,0,.9,2.3l.3.5c1.1,2,4.8,8.1,10.3,9.9-3.3-2.2-7.2-5.6-8.4-7.6a11.1,11.1,0,0,1-1-2.1l-.9-1.4A11,11,0,0,1,186.8,122.5Z"/><path d="M205.6,159.3l-.9-.3c-4.1-1.9-8.6-5.1-12.3-7.7h-.2v-.3a22.4,22.4,0,0,1,1.3-8.2h0c1.5-2.2,2.8-2.1,5.5-1.3a46.2,46.2,0,0,1,10.3,5.4c1.4,1.3,2.1,2.5,2,3.6a3.4,3.4,0,0,1-1.7,2.7,7.9,7.9,0,0,0-3.1,5.1,1.2,1.2,0,0,1-.5,1.1Zm-12.4-8.6c3.6,2.5,8,5.6,11.9,7.4l.4.2V158a8.9,8.9,0,0,1,3.5-5.8,2.7,2.7,0,0,0,1.3-1.9,3.9,3.9,0,0,0-1.7-2.8,40.9,40.9,0,0,0-9.9-5.2c-2.7-.8-3.3-.7-4.3.8A21.6,21.6,0,0,0,193.2,150.7Z"/><path d="M431,108c-.8,0-1.7-.3-2-1.9h0v-.4c.3-3,.7-6.3,2.5-8.9h.3a2.1,2.1,0,0,1,2.1.2,2.5,2.5,0,0,1,.7,2.1h-1a1.9,1.9,0,0,0-.3-1.3,1.4,1.4,0,0,0-1.1-.1c-1.5,2.4-1.9,5.5-2.2,8.3v.2c.2,1,.6,1.2,1.1,1.1v1Z"/><path d="M334.3,246.6h-1c.5-14.3,5.7-31.7,16.2-38.3a73.6,73.6,0,0,1,17.4-7.9c3.2-1.2,6.6-2.3,10.7-4.1,1.3-.6,3.1-1.1,5.1-1.8a70.8,70.8,0,0,0,7-2.3c5.1-2,10.5-8.3,10.3-15.1h0c2.3-8.3,9.8-19.8,14.8-24.1s4-3.7,5.1-6.1l.9-2.1a39.4,39.4,0,0,0,2.2-5.5,45.1,45.1,0,0,1,3.1-7.6c3-5.8,5.3-15.1,6.1-21.3h0l1.5-4.1c.4-1.4.9-2.7,1.2-3.7a1.8,1.8,0,0,0-.4-2.3c-.1,0-.1-.1-.2-.2a21.4,21.4,0,0,1-1.1,3.1,22.8,22.8,0,0,0-1.6,5.3c-.2,1.2-.5,2.5-.7,3.9-1,5.6-2.4,13.3-4.9,18.7l-.4.7c-.8,1.8-2.3,4.9-3.2,7.1-.1.1-.1.2-.1.4a8.9,8.9,0,0,1-1.2,3.1l-.6,1c-.6,1.3-1,2.1-4.6,5.3s-13.7,16.2-16,24.2l-.9-.2c1.2-11.6,9.3-20.8,16.8-28.4.9-1.2,1.4-1.6,1.9-1.8s.9-.6,2-3.4c1.9-4.8,6.8-16.6,9.4-22.5h0c.3-1.5.5-3,.8-4.3s.5-2.8.7-3.9a22.2,22.2,0,0,1,1.7-5.6,26.8,26.8,0,0,0,1.3-4l.3-1.1.6,1a8.6,8.6,0,0,0,.7,1,2.6,2.6,0,0,1,.7,3.2c-.4,1-.8,2.4-1.3,3.7s-1,2.8-1.4,4.1c-.8,6.3-3.2,15.7-6.2,21.6a63.8,63.8,0,0,0-3.1,7.5,39.4,39.4,0,0,1-2.2,5.5l-.9,2.1c-1.1,2.5-1.2,2.7-5.4,6.4S403.2,169,401,177.1c.2,7.2-5.5,13.9-10.9,16-2.6,1-5,1.8-7.1,2.4a40.9,40.9,0,0,0-5,1.7c-4.2,1.8-7.5,3-10.8,4.1-5.5,2-10.3,3.6-17.1,7.9C339.9,215.6,334.8,232.6,334.3,246.6Zm93.8-125.5c-2.7,6.2-6,14.3-7.5,18.1s-1.6,3.3-2.4,3.8a5.5,5.5,0,0,0-1.7,1.6c-6.1,6.3-12.7,13.6-15.4,22.4,3.8-7.6,10.7-16.4,14.1-19.4s3.8-3.7,4.5-4.9l.5-1.1a8,8,0,0,0,1.1-2.8c0-.2.1-.4.1-.6,1-2.2,2.4-5.3,3.3-7.1l.4-.7A56.4,56.4,0,0,0,428.1,121.1Z"/><path d="M299.8,232.5l.3-3.1c1.1-11.3,3.8-20.6,8.2-28.6.5-8,4.3-16.3,10.7-22.9s12.7-9.5,18.5-9.1c9,.5,11.4-.5,14.1-1.7a31.6,31.6,0,0,1,4.4-1.5c3.5-.9,3.8-1.4,4.3-2.1s.8-1.3,2.7-2.2a13.5,13.5,0,0,1,2.9-1.8l2.7-1.5c2.7-1.6,3.8-2.3,6.5-6.5s9.2-11.8,13.7-15.6a140.8,140.8,0,0,1,14-10.9c3.6-2.4,4.8-3.2,7.8-3.8h.7l.3-.6a8.3,8.3,0,0,1,2.5-3.4,13.1,13.1,0,0,0,3.1-5.7,43.5,43.5,0,0,1,2.3-7.4c2.5-5,5.8-9.3,12.6-7.5l-.3.9c-5.7-1.5-8.7,1.7-11.4,7.1a39.5,39.5,0,0,0-2.3,7.1,13,13,0,0,1-3.4,6.2,8.5,8.5,0,0,0-2.2,3.1c-.1.2-.2.3-.2.5h.1c.6.9,0,2.3-.8,3.8l-.2.4c-1.4,2.6-6.5,10.8-14.1,11h-2.6l2.4-1c3.3-1.5,9.2-6.4,10.6-8.7s.8-1.6,1-2a12.1,12.1,0,0,1,1-1.6,7.6,7.6,0,0,0,1-1.4c-2.7.7-3.8,1.4-7.3,3.7a176.5,176.5,0,0,0-14,10.8A93.9,93.9,0,0,0,376,152.1c-2.9,4.4-4.1,5.1-6.9,6.8l-2.7,1.5a15.4,15.4,0,0,0-2.9,1.7c-1.7.9-2.1,1.4-2.4,2s-1.2,1.6-4.9,2.5a16.9,16.9,0,0,0-4.2,1.5,19,19,0,0,1-6.1,1.6c.4.7.5.8,1.3.8,8-.1,13.7-.7,20.2-7.7l3.2-3.6c6.3-7,13.5-14.9,23-18.9,5.6-2.3,9.2-2.6,11.5-1s3.1,5.2,2.6,11.5v.2h-.1c-6,4.9-11.7,10.1-17.2,15.2l-5.8,5.4c-3.2,3-6.6,5.9-9.8,8.8s-4.7,4.1-7,6.3c-2.7,3.8-6.5,7.2-11.9,10.6s-10.3,6.4-17.4,5.3-17.8-2-23.8-9.6a52.8,52.8,0,0,0-5.3,8,29.4,29.4,0,0,0,0,4.2v.2h-.1c-1.1,3.1-2.1,6.3-3.1,9.4a120.7,120.7,0,0,1-5.1,14.6Zm8.4-29.5a73.2,73.2,0,0,0-6.7,22.9c1.5-3.6,2.6-7.3,3.8-11.2s1.9-6.2,3-9.4C308.3,204.6,308.2,203.8,308.2,203Zm6.5-11.5.4.5c5.7,7.7,15,9.3,23.4,9.7,6.8,1.1,12.6-2.2,16.8-5.1s9-6.7,11.6-10.5h.1l7-6.3c3.3-2.8,6.6-5.8,9.8-8.7l5.8-5.4c5.5-5.1,11.1-10.3,17.1-15.1.4-5.7-.3-8.9-2.2-10.3s-5.4-1.1-10.5,1c-9.3,3.9-16.4,11.8-22.6,18.7l-3.2,3.5c-6.9,7.4-12.8,8-21,8.1-1.4,0-1.7-.5-2.3-1.5h.2a48.6,48.6,0,0,1-7.7,0c-5.5-.3-12.1,3-17.7,8.8a37,37,0,0,0-10.2,20.1,45.4,45.4,0,0,1,4.8-6.7Zm97-69-1.2,1.6a4,4,0,0,0-.9,1.4,14.7,14.7,0,0,1-1.1,2.1c-1.1,2-5,5.4-8.4,7.6,5.6-1.8,9.3-7.9,10.4-9.9.1-.1.1-.3.2-.5A8.4,8.4,0,0,0,411.7,122.5Z"/><path d="M392.9,159.3h-.4a1.2,1.2,0,0,1-.5-1.1,8.3,8.3,0,0,0-3.1-5.1,3.4,3.4,0,0,1-1.7-2.7c-.1-1.1.6-2.3,2-3.6a46.2,46.2,0,0,1,10.3-5.4c2.7-.8,4-.9,5.4,1.3h.1a22.4,22.4,0,0,1,1.3,8.2v.3H406a80.9,80.9,0,0,1-12.2,7.7Zm9.3-17.5a10.2,10.2,0,0,0-2.4.5,43.4,43.4,0,0,0-10,5.2c-1.1,1-1.7,2-1.6,2.8a2.5,2.5,0,0,0,1.3,1.9A8.9,8.9,0,0,1,393,158v.3l.4-.2c3.9-1.8,8.3-4.9,11.9-7.4a21.6,21.6,0,0,0-1.2-7.6C403.5,142.2,403,141.8,402.2,141.8Z"/><rect x="333.8" y="246.1" width="101.9" height="1"/><rect x="435.7" y="246.1" width="163.3" height="1"/><rect x="162.8" y="246.1" width="101.9" height="1"/><rect y="246.1" width="162.8" height="1"/><circle cx="299.2" cy="75.3" r="21.4"/><path d="M299.2,106.7a31.4,31.4,0,1,1,31.5-31.4A31.5,31.5,0,0,1,299.2,106.7Zm0-61.8a30.4,30.4,0,1,0,30.5,30.4A30.5,30.5,0,0,0,299.2,44.9Z"/><path d="M299.2,112.9a37.7,37.7,0,1,1,37.7-37.6A37.7,37.7,0,0,1,299.2,112.9Zm0-74.3a36.7,36.7,0,1,0,36.7,36.7A36.6,36.6,0,0,0,299.2,38.6Z"/><path d="M299.2,119.2a44,44,0,1,1,44-43.9A44,44,0,0,1,299.2,119.2Zm0-86.9a43,43,0,1,0,43,43A43,43,0,0,0,299.2,32.3Z"/><path d="M299.2,125.5a50.2,50.2,0,1,1,50.2-50.2A50.4,50.4,0,0,1,299.2,125.5Zm0-99.4a49.2,49.2,0,1,0,49.2,49.2A49.2,49.2,0,0,0,299.2,26.1Z"/><path d="M299.2,131.7a56.5,56.5,0,1,1,56.5-56.4A56.5,56.5,0,0,1,299.2,131.7Zm0-111.9a55.5,55.5,0,1,0,55.5,55.5A55.5,55.5,0,0,0,299.2,19.8Z"/><path d="M299.2,138A62.8,62.8,0,1,1,362,75.3,62.7,62.7,0,0,1,299.2,138Zm0-124.5A61.8,61.8,0,1,0,361,75.3,61.8,61.8,0,0,0,299.2,13.5Z"/><path d="M299.2,144.3a69,69,0,1,1,69-69A69.1,69.1,0,0,1,299.2,144.3Zm0-137a68,68,0,1,0,68,68A68.1,68.1,0,0,0,299.2,7.3Z"/><path d="M299.2,150.5a75.3,75.3,0,1,1,75.3-75.2A75.2,75.2,0,0,1,299.2,150.5ZM299.2,1a74.3,74.3,0,1,0,74.3,74.3A74.3,74.3,0,0,0,299.2,1Z"/><circle cx="329.4" cy="68.7" r="2.1"/><circle cx="324.4" cy="110.7" r="3.6"/><circle cx="287.8" cy="142.9" r="5.1"/><circle cx="246.8" cy="94.2" r="12"/><circle cx="275.4" cy="46.6" r="2.9"/><circle cx="261.9" cy="10.3" r="4.2"/><circle cx="334.5" cy="40.4" r="2.3"/><circle cx="359.4" cy="59.7" r="8.1"/></svg>