<svg id="Layer_1" data-name="Layer 1" xmlns="http://www.w3.org/2000/svg" viewBox="0 0 400 400"><defs><style>.cls-1,.cls-2{fill:#0e0e0e;}.cls-1{fill-rule:evenodd;}</style></defs><title>fxlogo_b</title><polygon class="cls-1" points="301.6 219.3 329.2 267.1 273.9 267.1 246.3 219.3 218.7 267.1 163.4 267.1 191.1 219.3 218.7 171.4 191.1 123.6 119.1 123.6 119.1 147.5 181 147.5 194.8 171.4 181 195.4 119.1 195.4 119.1 267.1 71.3 267.1 71.3 75.7 218.7 75.7 246.3 123.6 273.9 75.7 329.2 75.7 301.6 123.6 273.9 171.4 301.6 219.3"/><path class="cls-2" d="M107.2,328.6H81.3a10.6,10.6,0,0,1-7.3-2.5c-1.8-1.6-2.7-4-2.7-7.1V291h10v25.4a3,3,0,0,0,1.3,2.9,5.1,5.1,0,0,0,3.1.7H97.1V291h10.1Z"/><path class="cls-2" d="M147.9,328.6H137.8V303.2a3.2,3.2,0,0,0-1.2-2.9,5.2,5.2,0,0,0-3.2-.7H122v29H111.9V291h25.9a10.5,10.5,0,0,1,7.3,2.4,9.5,9.5,0,0,1,2.8,7.2Z"/><path class="cls-2" d="M162.6,328.6h-10V291h10Z"/><path class="cls-2" d="M209.1,291l-15.8,37.6H183.2L167.3,291h11.6l9.4,23.6,9.2-23.6Z"/><path class="cls-2" d="M249.8,328.6h-36V291h36v8.6H223.9v5.8h19.3v8.9H223.9V320h25.9Z"/><path class="cls-2" d="M290.4,305.7a8.6,8.6,0,0,1-1.1,4.7c-1.7,2.2-5.1,3.5-10.1,3.9l9.9,14.2H277.5l-9.9-14.3h-3.1v14.3h-10V291h26.3c6.4,0,9.6,2.9,9.6,8.6Zm-10.1-2.5h0c0-2.3-1-3.5-3.1-3.5H264.5v7.1h12.7C279.3,306.7,280.3,305.5,280.3,303.2Z"/><path class="cls-2" d="M331.3,299.6H307.8a2.3,2.3,0,0,0-1.9.9,3.7,3.7,0,0,0-.7,2.3h0c0,2.1.9,3.2,2.8,3.2h13.2c3.3,0,5.8.6,7.4,1.8s2.7,3.6,2.7,6.8V319a8.9,8.9,0,0,1-2.9,7,10.3,10.3,0,0,1-7.2,2.6H295.1v-8.3h23.2c1.9,0,2.9-1,2.9-3.1h0a2.9,2.9,0,0,0-2.7-3.2H305.2a10.5,10.5,0,0,1-7.3-2.6,8.8,8.8,0,0,1-2.8-7v-4.7c0-3.2.9-5.4,2.7-6.7s4-1.9,7.4-1.9h26.1Z"/><path class="cls-2" d="M389.2,10.8V389.2H10.8V10.8H389.2M400,0H0V400H400V0Z"/></svg>