<svg id="Layer_1" data-name="Layer 1" xmlns="http://www.w3.org/2000/svg" viewBox="0 0 16 16">
  <defs>
    <style>
      .cls-1 {
        fill: #393939;
      }
    </style>
  </defs>
  <title>w</title>
  <path class="cls-1" d="M16,3.1V9a.9.9,0,0,1-.9.9h-.7V9.1a.9.9,0,0,0-.3-.6L10.8,5.1,9.6,3.9,7.5,5H6.9a1.3,1.3,0,0,1-1.2-.8,1.3,1.3,0,0,1,.6-1.7l1.9-.9.6-.3.4-.2h.7l1.5.6h0l2.2.9,1.2-.4A.9.9,0,0,1,16,3.1Z"/>
  <path class="cls-1" d="M12.5,9.7a3.1,3.1,0,0,1-.5,1L8.5,14.1a2.3,2.3,0,0,1-3,.1L.8,9.9H0V2.8a.9.9,0,0,1,.9-.9H4.6a2.9,2.9,0,0,0-.5,3.2l.6.8a3.2,3.2,0,0,0,2,.8h.9L8,6.4l1.3-.6h0l3,3.1A.8.8,0,0,1,12.5,9.7Z"/>
</svg>
