<svg id="Layer_1" data-name="Layer 1" xmlns="http://www.w3.org/2000/svg" viewBox="0 0 16 16"><title>65</title><path d="M15.6,3.9,8.2.3H7.8L.4,3.9c-.3.1-.2.7.2.7H15.4C15.8,4.6,15.9,4,15.6,3.9Z"/><path d="M13.5,13.7H2.5L.2,14.9A.6.6,0,0,0,.6,16H15.4a.6.6,0,0,0,.4-1.1Z"/><rect x="2.5" y="6.3" width="1.7" height="5.69" transform="translate(6.7 18.3) rotate(180)"/><rect x="11.8" y="6.3" width="1.7" height="5.69" transform="translate(25.3 18.3) rotate(180)"/><rect x="7.1" y="6.3" width="1.7" height="5.69" transform="translate(16 18.3) rotate(180)"/></svg>