<?xml version="1.0" encoding="UTF-8"?>
<!DOCTYPE svg PUBLIC "-//W3C//DTD SVG 1.1//EN" "http://www.w3.org/Graphics/SVG/1.1/DTD/svg11.dtd">
<svg width="353mm" height="199mm" viewBox="0 0 35300 19900" version="1.1" xmlns="http://www.w3.org/2000/svg" xmlns:xlink="http://www.w3.org/1999/xlink" stroke-width="28.222" stroke-linejoin="round" xml:space="preserve">
 <path fill="rgb(255,255,255)" stroke="none" d="M 17664,19918 L 0,19918 0,0 35327,0 35327,19918 17664,19918 Z"/>
 <path fill="none" stroke="rgb(179,179,179)" stroke-linejoin="round" d="M 16667,17464 L 3911,17464 3911,2139 29423,2139 29423,17464 16667,17464 Z"/>
 <path fill="none" stroke="rgb(179,179,179)" stroke-linejoin="round" d="M 29423,17463 L 3911,17463"/>
 <path fill="none" stroke="rgb(179,179,179)" stroke-linejoin="round" d="M 29423,15273 L 3911,15273"/>
 <path fill="none" stroke="rgb(179,179,179)" stroke-linejoin="round" d="M 29423,13084 L 3911,13084"/>
 <path fill="none" stroke="rgb(179,179,179)" stroke-linejoin="round" d="M 29423,10894 L 3911,10894"/>
 <path fill="none" stroke="rgb(179,179,179)" stroke-linejoin="round" d="M 29423,8706 L 3911,8706"/>
 <path fill="none" stroke="rgb(179,179,179)" stroke-linejoin="round" d="M 29423,6516 L 3911,6516"/>
 <path fill="none" stroke="rgb(179,179,179)" stroke-linejoin="round" d="M 29423,4327 L 3911,4327"/>
 <path fill="none" stroke="rgb(179,179,179)" stroke-linejoin="round" d="M 29423,2138 L 3911,2138"/>
 <path fill="none" stroke="rgb(179,179,179)" stroke-linejoin="round" d="M 3911,17613 L 3911,17463"/>
 <path fill="none" stroke="rgb(179,179,179)" stroke-linejoin="round" d="M 3911,17613 L 3911,17463"/>
 <path fill="none" stroke="rgb(179,179,179)" stroke-linejoin="round" d="M 12415,17613 L 12415,17463"/>
 <path fill="none" stroke="rgb(179,179,179)" stroke-linejoin="round" d="M 12415,17613 L 12415,17463"/>
 <path fill="none" stroke="rgb(179,179,179)" stroke-linejoin="round" d="M 20918,17613 L 20918,17463"/>
 <path fill="none" stroke="rgb(179,179,179)" stroke-linejoin="round" d="M 20918,17613 L 20918,17463"/>
 <path fill="none" stroke="rgb(179,179,179)" stroke-linejoin="round" d="M 29423,17613 L 29423,17463"/>
 <path fill="none" stroke="rgb(179,179,179)" stroke-linejoin="round" d="M 29423,17613 L 29423,17463"/>
 <path fill="none" stroke="rgb(179,179,179)" stroke-linejoin="round" d="M 3911,17463 L 29423,17463"/>
 <path fill="none" stroke="rgb(179,179,179)" stroke-linejoin="round" d="M 3761,17463 L 3911,17463"/>
 <path fill="none" stroke="rgb(179,179,179)" stroke-linejoin="round" d="M 3761,17463 L 3911,17463"/>
 <path fill="none" stroke="rgb(179,179,179)" stroke-linejoin="round" d="M 3761,15273 L 3911,15273"/>
 <path fill="none" stroke="rgb(179,179,179)" stroke-linejoin="round" d="M 3761,15273 L 3911,15273"/>
 <path fill="none" stroke="rgb(179,179,179)" stroke-linejoin="round" d="M 3761,13084 L 3911,13084"/>
 <path fill="none" stroke="rgb(179,179,179)" stroke-linejoin="round" d="M 3761,13084 L 3911,13084"/>
 <path fill="none" stroke="rgb(179,179,179)" stroke-linejoin="round" d="M 3761,10894 L 3911,10894"/>
 <path fill="none" stroke="rgb(179,179,179)" stroke-linejoin="round" d="M 3761,10894 L 3911,10894"/>
 <path fill="none" stroke="rgb(179,179,179)" stroke-linejoin="round" d="M 3761,8706 L 3911,8706"/>
 <path fill="none" stroke="rgb(179,179,179)" stroke-linejoin="round" d="M 3761,8706 L 3911,8706"/>
 <path fill="none" stroke="rgb(179,179,179)" stroke-linejoin="round" d="M 3761,6516 L 3911,6516"/>
 <path fill="none" stroke="rgb(179,179,179)" stroke-linejoin="round" d="M 3761,6516 L 3911,6516"/>
 <path fill="none" stroke="rgb(179,179,179)" stroke-linejoin="round" d="M 3761,4327 L 3911,4327"/>
 <path fill="none" stroke="rgb(179,179,179)" stroke-linejoin="round" d="M 3761,4327 L 3911,4327"/>
 <path fill="none" stroke="rgb(179,179,179)" stroke-linejoin="round" d="M 3761,2138 L 3911,2138"/>
 <path fill="none" stroke="rgb(179,179,179)" stroke-linejoin="round" d="M 3761,2138 L 3911,2138"/>
 <path fill="none" stroke="rgb(179,179,179)" stroke-linejoin="round" d="M 3911,17463 L 3911,2138"/>
 <path fill="rgb(134,198,223)" stroke="none" d="M 23044,17463 L 27296,17463 27296,15273 23044,15273 23044,17463 Z"/>
 <path fill="rgb(134,198,223)" stroke="none" d="M 14541,17463 L 18792,17463 18792,17244 14541,17244 14541,17463 Z"/>
 <path fill="rgb(134,198,223)" stroke="none" d="M 6037,17463 L 10289,17463 10289,17441 6037,17441 6037,17463 Z"/>
 <path fill="rgb(179,109,223)" stroke="none" d="M 23044,15273 L 27296,15273 27296,2138 23044,2138 23044,15273 Z"/>
 <path fill="rgb(179,109,223)" stroke="none" d="M 14541,17244 L 18792,17244 18792,13084 14541,13084 14541,17244 Z"/>
 <path fill="rgb(179,109,223)" stroke="none" d="M 6037,17441 L 10289,17441 10289,15470 6037,15470 6037,17441 Z"/>
 <text class="TextShape"><tspan class="TextParagraph" font-family="Liberation Sans, sans-serif" font-size="353px" font-weight="400"><tspan class="TextPosition" x="8070" y="18031"><tspan fill="rgb(0,0,0)" stroke="none">1</tspan></tspan></tspan></text>
 <text class="TextShape"><tspan class="TextParagraph" font-family="Liberation Sans, sans-serif" font-size="353px" font-weight="400"><tspan class="TextPosition" x="16574" y="18031"><tspan fill="rgb(0,0,0)" stroke="none">2</tspan></tspan></tspan></text>
 <text class="TextShape"><tspan class="TextParagraph" font-family="Liberation Sans, sans-serif" font-size="353px" font-weight="400"><tspan class="TextPosition" x="25078" y="18031"><tspan fill="rgb(0,0,0)" stroke="none">3</tspan></tspan></tspan></text>
 <text class="TextShape"><tspan class="TextParagraph" font-family="Liberation Sans, sans-serif" font-size="353px" font-weight="400"><tspan class="TextPosition" x="3476" y="17584"><tspan fill="rgb(0,0,0)" stroke="none">0</tspan></tspan></tspan></text>
 <text class="TextShape"><tspan class="TextParagraph" font-family="Liberation Sans, sans-serif" font-size="353px" font-weight="400"><tspan class="TextPosition" x="2920" y="15394"><tspan fill="rgb(0,0,0)" stroke="none">1000</tspan></tspan></tspan></text>
 <text class="TextShape"><tspan class="TextParagraph" font-family="Liberation Sans, sans-serif" font-size="353px" font-weight="400"><tspan class="TextPosition" x="2920" y="13205"><tspan fill="rgb(0,0,0)" stroke="none">2000</tspan></tspan></tspan></text>
 <text class="TextShape"><tspan class="TextParagraph" font-family="Liberation Sans, sans-serif" font-size="353px" font-weight="400"><tspan class="TextPosition" x="2920" y="11015"><tspan fill="rgb(0,0,0)" stroke="none">3000</tspan></tspan></tspan></text>
 <text class="TextShape"><tspan class="TextParagraph" font-family="Liberation Sans, sans-serif" font-size="353px" font-weight="400"><tspan class="TextPosition" x="2920" y="8826"><tspan fill="rgb(0,0,0)" stroke="none">4000</tspan></tspan></tspan></text>
 <text class="TextShape"><tspan class="TextParagraph" font-family="Liberation Sans, sans-serif" font-size="353px" font-weight="400"><tspan class="TextPosition" x="2920" y="6636"><tspan fill="rgb(0,0,0)" stroke="none">5000</tspan></tspan></tspan></text>
 <text class="TextShape"><tspan class="TextParagraph" font-family="Liberation Sans, sans-serif" font-size="353px" font-weight="400"><tspan class="TextPosition" x="2920" y="4447"><tspan fill="rgb(0,0,0)" stroke="none">6000</tspan></tspan></tspan></text>
 <text class="TextShape"><tspan class="TextParagraph" font-family="Liberation Sans, sans-serif" font-size="353px" font-weight="400"><tspan class="TextPosition" x="2920" y="2258"><tspan fill="rgb(0,0,0)" stroke="none">7000</tspan></tspan></tspan></text>
 <text class="TextShape"><tspan class="TextParagraph" font-family="Liberation Sans, sans-serif" font-size="529px" font-weight="400"><tspan class="TextPosition" x="7726" y="16641"><tspan fill="rgb(0,0,0)" stroke="none">900</tspan></tspan></tspan></text>
 <text class="TextShape"><tspan class="TextParagraph" font-family="Liberation Sans, sans-serif" font-size="529px" font-weight="400"><tspan class="TextPosition" x="16085" y="15350"><tspan fill="rgb(0,0,0)" stroke="none">1900</tspan></tspan></tspan></text>
 <text class="TextShape"><tspan class="TextParagraph" font-family="Liberation Sans, sans-serif" font-size="529px" font-weight="400"><tspan class="TextPosition" x="24589" y="8891"><tspan fill="rgb(0,0,0)" stroke="none">6900</tspan></tspan></tspan></text>
 <text class="TextShape"><tspan class="TextParagraph" font-family="Liberation Sans, sans-serif" font-size="529px" font-weight="400"><tspan class="TextPosition" x="8430" y="1168"><tspan fill="rgb(0,0,0)" stroke="none">fxInstructor Net Income for One fxCourse by gaining fxSubInstructors in Depth</tspan></tspan></tspan></text>
 <path fill="rgb(134,198,223)" stroke="none" d="M 30573,10397 L 30435,10397 30435,10122 30710,10122 30710,10397 30573,10397 Z"/>
 <path fill="rgb(179,109,223)" stroke="none" d="M 30573,9794 L 30435,9794 30435,9519 30710,9519 30710,9794 30573,9794 Z"/>
 <text class="TextShape"><tspan class="TextParagraph" font-family="Liberation Sans, sans-serif" font-size="459px" font-weight="400"><tspan class="TextPosition" x="30810" y="9802"><tspan fill="rgb(0,0,0)" stroke="none">Net Income (fxStars)</tspan></tspan></tspan></text>
 <text class="TextShape"><tspan class="TextParagraph" font-family="Liberation Sans, sans-serif" font-size="459px" font-weight="400"><tspan class="TextPosition" x="30810" y="10405"><tspan fill="rgb(0,0,0)" stroke="none">fxSubInstructors</tspan></tspan></tspan></text>
 <text class="TextShape"><tspan class="TextParagraph" font-family="Liberation Sans, sans-serif" font-size="459px" font-weight="400"><tspan class="TextPosition" x="12047" y="19247"><tspan fill="rgb(0,0,0)" stroke="none">Depth, e.g. fxSubSubInstructor is of depth 2</tspan></tspan></tspan></text>
 <text class="TextShape" transform="rotate(-90 1969 12698)"><tspan class="TextParagraph" font-family="Liberation Sans, sans-serif" font-size="459px" font-weight="400"><tspan class="TextPosition" x="1969" y="12698"><tspan fill="rgb(0,0,0)" stroke="none">Net Income for fxInstructor</tspan></tspan></tspan></text>
</svg>