<?xml version="1.0" encoding="utf-8" standalone="no"?>
<!DOCTYPE svg PUBLIC "-//W3C//DTD SVG 1.1//EN"
  "http://www.w3.org/Graphics/SVG/1.1/DTD/svg11.dtd">
<svg height="345.6pt" version="1.1" viewBox="0 0 460.8 345.6" width="460.8pt" xmlns="http://www.w3.org/2000/svg" xmlns:xlink="http://www.w3.org/1999/xlink">
 <metadata>
  <rdf:RDF xmlns:cc="http://creativecommons.org/ns#" xmlns:dc="http://purl.org/dc/elements/1.1/" xmlns:rdf="http://www.w3.org/1999/02/22-rdf-syntax-ns#">
   <cc:Work>
    <dc:type rdf:resource="http://purl.org/dc/dcmitype/StillImage"/>
    <dc:date>2021-06-07T17:37:59.028280</dc:date>
    <dc:format>image/svg+xml</dc:format>
    <dc:creator>
     <cc:Agent>
      <dc:title>Matplotlib v3.4.2, https://matplotlib.org/</dc:title>
     </cc:Agent>
    </dc:creator>
   </cc:Work>
  </rdf:RDF>
 </metadata>
 <defs>
  <style type="text/css">*{stroke-linecap:butt;stroke-linejoin:round;}</style>
 </defs>
 <g id="figure_1">
  <g id="patch_1">
   <path d="M 0 345.6 
L 460.8 345.6 
L 460.8 0 
L 0 0 
z
" style="fill:none;"/>
  </g>
  <g id="axes_1">
   <g id="patch_2">
    <path d="M 363.093539 172.635768 
C 363.093539 166.299064 362.595599 159.972145 361.60432 153.713455 
C 360.613041 147.454766 359.131484 141.283637 357.173335 135.257072 
L 242.133539 172.635768 
L 363.093539 172.635768 
z
" style="fill:#00a1e0;"/>
   </g>
   <g id="patch_3">
    <path d="M 356.003872 131.657835 
C 354.045722 125.63127 351.617028 119.767884 348.740224 114.121839 
C 345.863421 108.475794 342.547392 103.064528 338.822771 97.938026 
L 240.964076 169.036531 
L 356.003872 131.657835 
z
" style="fill:#00e0dd;"/>
   </g>
   <g id="patch_4">
    <path d="M 328.045156 103.429495 
C 324.320534 98.302993 320.198823 93.47709 315.718096 88.996363 
C 311.237369 84.515636 306.411466 80.393925 301.284964 76.669304 
L 230.186461 174.528 
L 328.045156 103.429495 
z
" style="fill:#a64bdf;"/>
   </g>
   <g id="patch_5">
    <path d="M 301.284964 76.669304 
C 296.158462 72.944682 290.747195 69.628654 285.10115 66.75185 
C 279.455105 63.875047 273.591719 61.446353 267.565155 59.488203 
L 230.186461 174.528 
L 301.284964 76.669304 
z
" style="fill:#b675df;"/>
   </g>
   <g id="patch_6">
    <path d="M 267.565155 59.488203 
C 255.493499 55.565885 242.879348 53.568 230.186458 53.568 
C 217.493568 53.568001 204.879418 55.565886 192.807763 59.488205 
C 180.736107 63.410524 169.356718 69.208613 159.087954 76.669307 
C 148.819191 84.130001 139.788457 93.160736 132.327763 103.4295 
C 124.86707 113.698264 119.068982 125.077653 115.146664 137.149309 
C 111.224346 149.220965 109.226461 161.835115 109.226462 174.528005 
C 109.226462 187.220895 111.224348 199.835046 115.146668 211.906701 
C 119.068987 223.978357 124.867076 235.357746 132.32777 245.626509 
C 139.788464 255.895272 148.819199 264.926006 159.087963 272.386699 
C 169.356728 279.847392 180.736117 285.64548 192.807773 289.567798 
C 204.879429 293.490116 217.49358 295.488 230.18647 295.487999 
C 242.87936 295.487998 255.49351 293.490112 267.565165 289.567793 
C 279.636821 285.645473 291.01621 279.847384 301.284973 272.386689 
C 311.553736 264.925995 320.58447 255.89526 328.045162 245.626495 
C 335.505855 235.357731 341.303943 223.978341 345.22626 211.906685 
C 349.148578 199.835029 351.146462 187.220878 351.146461 174.527988 
L 230.186461 174.528 
L 267.565155 59.488203 
z
" style="fill:#941edf;"/>
   </g>
   <g id="matplotlib.axis_1"/>
   <g id="matplotlib.axis_2"/>
   <g id="text_1">
    <!-- fxUnivers -->
    <g transform="translate(373.551399 155.684349)scale(0.14 -0.14)">
     <defs>
      <path d="M 2375 4863 
L 2375 4384 
L 1825 4384 
Q 1516 4384 1395 4259 
Q 1275 4134 1275 3809 
L 1275 3500 
L 2222 3500 
L 2222 3053 
L 1275 3053 
L 1275 0 
L 697 0 
L 697 3053 
L 147 3053 
L 147 3500 
L 697 3500 
L 697 3744 
Q 697 4328 969 4595 
Q 1241 4863 1831 4863 
L 2375 4863 
z
" id="DejaVuSans-66" transform="scale(0.015625)"/>
      <path d="M 3513 3500 
L 2247 1797 
L 3578 0 
L 2900 0 
L 1881 1375 
L 863 0 
L 184 0 
L 1544 1831 
L 300 3500 
L 978 3500 
L 1906 2253 
L 2834 3500 
L 3513 3500 
z
" id="DejaVuSans-78" transform="scale(0.015625)"/>
      <path d="M 556 4666 
L 1191 4666 
L 1191 1831 
Q 1191 1081 1462 751 
Q 1734 422 2344 422 
Q 2950 422 3222 751 
Q 3494 1081 3494 1831 
L 3494 4666 
L 4128 4666 
L 4128 1753 
Q 4128 841 3676 375 
Q 3225 -91 2344 -91 
Q 1459 -91 1007 375 
Q 556 841 556 1753 
L 556 4666 
z
" id="DejaVuSans-55" transform="scale(0.015625)"/>
      <path d="M 3513 2113 
L 3513 0 
L 2938 0 
L 2938 2094 
Q 2938 2591 2744 2837 
Q 2550 3084 2163 3084 
Q 1697 3084 1428 2787 
Q 1159 2491 1159 1978 
L 1159 0 
L 581 0 
L 581 3500 
L 1159 3500 
L 1159 2956 
Q 1366 3272 1645 3428 
Q 1925 3584 2291 3584 
Q 2894 3584 3203 3211 
Q 3513 2838 3513 2113 
z
" id="DejaVuSans-6e" transform="scale(0.015625)"/>
      <path d="M 603 3500 
L 1178 3500 
L 1178 0 
L 603 0 
L 603 3500 
z
M 603 4863 
L 1178 4863 
L 1178 4134 
L 603 4134 
L 603 4863 
z
" id="DejaVuSans-69" transform="scale(0.015625)"/>
      <path d="M 191 3500 
L 800 3500 
L 1894 563 
L 2988 3500 
L 3597 3500 
L 2284 0 
L 1503 0 
L 191 3500 
z
" id="DejaVuSans-76" transform="scale(0.015625)"/>
      <path d="M 3597 1894 
L 3597 1613 
L 953 1613 
Q 991 1019 1311 708 
Q 1631 397 2203 397 
Q 2534 397 2845 478 
Q 3156 559 3463 722 
L 3463 178 
Q 3153 47 2828 -22 
Q 2503 -91 2169 -91 
Q 1331 -91 842 396 
Q 353 884 353 1716 
Q 353 2575 817 3079 
Q 1281 3584 2069 3584 
Q 2775 3584 3186 3129 
Q 3597 2675 3597 1894 
z
M 3022 2063 
Q 3016 2534 2758 2815 
Q 2500 3097 2075 3097 
Q 1594 3097 1305 2825 
Q 1016 2553 972 2059 
L 3022 2063 
z
" id="DejaVuSans-65" transform="scale(0.015625)"/>
      <path d="M 2631 2963 
Q 2534 3019 2420 3045 
Q 2306 3072 2169 3072 
Q 1681 3072 1420 2755 
Q 1159 2438 1159 1844 
L 1159 0 
L 581 0 
L 581 3500 
L 1159 3500 
L 1159 2956 
Q 1341 3275 1631 3429 
Q 1922 3584 2338 3584 
Q 2397 3584 2469 3576 
Q 2541 3569 2628 3553 
L 2631 2963 
z
" id="DejaVuSans-72" transform="scale(0.015625)"/>
      <path d="M 2834 3397 
L 2834 2853 
Q 2591 2978 2328 3040 
Q 2066 3103 1784 3103 
Q 1356 3103 1142 2972 
Q 928 2841 928 2578 
Q 928 2378 1081 2264 
Q 1234 2150 1697 2047 
L 1894 2003 
Q 2506 1872 2764 1633 
Q 3022 1394 3022 966 
Q 3022 478 2636 193 
Q 2250 -91 1575 -91 
Q 1294 -91 989 -36 
Q 684 19 347 128 
L 347 722 
Q 666 556 975 473 
Q 1284 391 1588 391 
Q 1994 391 2212 530 
Q 2431 669 2431 922 
Q 2431 1156 2273 1281 
Q 2116 1406 1581 1522 
L 1381 1569 
Q 847 1681 609 1914 
Q 372 2147 372 2553 
Q 372 3047 722 3315 
Q 1072 3584 1716 3584 
Q 2034 3584 2315 3537 
Q 2597 3491 2834 3397 
z
" id="DejaVuSans-73" transform="scale(0.015625)"/>
     </defs>
     <use xlink:href="#DejaVuSans-66"/>
     <use x="35.205078" xlink:href="#DejaVuSans-78"/>
     <use x="94.384766" xlink:href="#DejaVuSans-55"/>
     <use x="167.578125" xlink:href="#DejaVuSans-6e"/>
     <use x="230.957031" xlink:href="#DejaVuSans-69"/>
     <use x="258.740234" xlink:href="#DejaVuSans-76"/>
     <use x="317.919922" xlink:href="#DejaVuSans-65"/>
     <use x="379.443359" xlink:href="#DejaVuSans-72"/>
     <use x="420.556641" xlink:href="#DejaVuSans-73"/>
    </g>
   </g>
   <g id="text_2">
    <!-- 5% -->
    <g transform="translate(302.711164 165.145506)scale(0.14 -0.14)">
     <defs>
      <path d="M 691 4666 
L 3169 4666 
L 3169 4134 
L 1269 4134 
L 1269 2991 
Q 1406 3038 1543 3061 
Q 1681 3084 1819 3084 
Q 2600 3084 3056 2656 
Q 3513 2228 3513 1497 
Q 3513 744 3044 326 
Q 2575 -91 1722 -91 
Q 1428 -91 1123 -41 
Q 819 9 494 109 
L 494 744 
Q 775 591 1075 516 
Q 1375 441 1709 441 
Q 2250 441 2565 725 
Q 2881 1009 2881 1497 
Q 2881 1984 2565 2268 
Q 2250 2553 1709 2553 
Q 1456 2553 1204 2497 
Q 953 2441 691 2322 
L 691 4666 
z
" id="DejaVuSans-35" transform="scale(0.015625)"/>
      <path d="M 4653 2053 
Q 4381 2053 4226 1822 
Q 4072 1591 4072 1178 
Q 4072 772 4226 539 
Q 4381 306 4653 306 
Q 4919 306 5073 539 
Q 5228 772 5228 1178 
Q 5228 1588 5073 1820 
Q 4919 2053 4653 2053 
z
M 4653 2450 
Q 5147 2450 5437 2106 
Q 5728 1763 5728 1178 
Q 5728 594 5436 251 
Q 5144 -91 4653 -91 
Q 4153 -91 3862 251 
Q 3572 594 3572 1178 
Q 3572 1766 3864 2108 
Q 4156 2450 4653 2450 
z
M 1428 4353 
Q 1159 4353 1004 4120 
Q 850 3888 850 3481 
Q 850 3069 1003 2837 
Q 1156 2606 1428 2606 
Q 1700 2606 1854 2837 
Q 2009 3069 2009 3481 
Q 2009 3884 1853 4118 
Q 1697 4353 1428 4353 
z
M 4250 4750 
L 4750 4750 
L 1831 -91 
L 1331 -91 
L 4250 4750 
z
M 1428 4750 
Q 1922 4750 2215 4408 
Q 2509 4066 2509 3481 
Q 2509 2891 2217 2550 
Q 1925 2209 1428 2209 
Q 931 2209 642 2551 
Q 353 2894 353 3481 
Q 353 4063 643 4406 
Q 934 4750 1428 4750 
z
" id="DejaVuSans-25" transform="scale(0.015625)"/>
     </defs>
     <use xlink:href="#DejaVuSans-35"/>
     <use x="63.623047" xlink:href="#DejaVuSans-25"/>
    </g>
   </g>
   <g id="text_3">
    <!-- fxPartner -->
    <g transform="translate(359.517839 112.493495)scale(0.14 -0.14)">
     <defs>
      <path d="M 1259 4147 
L 1259 2394 
L 2053 2394 
Q 2494 2394 2734 2622 
Q 2975 2850 2975 3272 
Q 2975 3691 2734 3919 
Q 2494 4147 2053 4147 
L 1259 4147 
z
M 628 4666 
L 2053 4666 
Q 2838 4666 3239 4311 
Q 3641 3956 3641 3272 
Q 3641 2581 3239 2228 
Q 2838 1875 2053 1875 
L 1259 1875 
L 1259 0 
L 628 0 
L 628 4666 
z
" id="DejaVuSans-50" transform="scale(0.015625)"/>
      <path d="M 2194 1759 
Q 1497 1759 1228 1600 
Q 959 1441 959 1056 
Q 959 750 1161 570 
Q 1363 391 1709 391 
Q 2188 391 2477 730 
Q 2766 1069 2766 1631 
L 2766 1759 
L 2194 1759 
z
M 3341 1997 
L 3341 0 
L 2766 0 
L 2766 531 
Q 2569 213 2275 61 
Q 1981 -91 1556 -91 
Q 1019 -91 701 211 
Q 384 513 384 1019 
Q 384 1609 779 1909 
Q 1175 2209 1959 2209 
L 2766 2209 
L 2766 2266 
Q 2766 2663 2505 2880 
Q 2244 3097 1772 3097 
Q 1472 3097 1187 3025 
Q 903 2953 641 2809 
L 641 3341 
Q 956 3463 1253 3523 
Q 1550 3584 1831 3584 
Q 2591 3584 2966 3190 
Q 3341 2797 3341 1997 
z
" id="DejaVuSans-61" transform="scale(0.015625)"/>
      <path d="M 1172 4494 
L 1172 3500 
L 2356 3500 
L 2356 3053 
L 1172 3053 
L 1172 1153 
Q 1172 725 1289 603 
Q 1406 481 1766 481 
L 2356 481 
L 2356 0 
L 1766 0 
Q 1100 0 847 248 
Q 594 497 594 1153 
L 594 3053 
L 172 3053 
L 172 3500 
L 594 3500 
L 594 4494 
L 1172 4494 
z
" id="DejaVuSans-74" transform="scale(0.015625)"/>
     </defs>
     <use xlink:href="#DejaVuSans-66"/>
     <use x="35.205078" xlink:href="#DejaVuSans-78"/>
     <use x="94.384766" xlink:href="#DejaVuSans-50"/>
     <use x="150.1875" xlink:href="#DejaVuSans-61"/>
     <use x="211.466797" xlink:href="#DejaVuSans-72"/>
     <use x="252.580078" xlink:href="#DejaVuSans-74"/>
     <use x="291.789062" xlink:href="#DejaVuSans-6e"/>
     <use x="355.167969" xlink:href="#DejaVuSans-65"/>
     <use x="416.691406" xlink:href="#DejaVuSans-72"/>
    </g>
   </g>
   <g id="text_4">
    <!-- 5% -->
    <g transform="translate(294.524921 139.950841)scale(0.14 -0.14)">
     <use xlink:href="#DejaVuSans-35"/>
     <use x="63.623047" xlink:href="#DejaVuSans-25"/>
    </g>
   </g>
   <g id="text_5">
    <!-- fxSubInstructor -->
    <g transform="translate(324.27126 84.306324)scale(0.14 -0.14)">
     <defs>
      <path d="M 3425 4513 
L 3425 3897 
Q 3066 4069 2747 4153 
Q 2428 4238 2131 4238 
Q 1616 4238 1336 4038 
Q 1056 3838 1056 3469 
Q 1056 3159 1242 3001 
Q 1428 2844 1947 2747 
L 2328 2669 
Q 3034 2534 3370 2195 
Q 3706 1856 3706 1288 
Q 3706 609 3251 259 
Q 2797 -91 1919 -91 
Q 1588 -91 1214 -16 
Q 841 59 441 206 
L 441 856 
Q 825 641 1194 531 
Q 1563 422 1919 422 
Q 2459 422 2753 634 
Q 3047 847 3047 1241 
Q 3047 1584 2836 1778 
Q 2625 1972 2144 2069 
L 1759 2144 
Q 1053 2284 737 2584 
Q 422 2884 422 3419 
Q 422 4038 858 4394 
Q 1294 4750 2059 4750 
Q 2388 4750 2728 4690 
Q 3069 4631 3425 4513 
z
" id="DejaVuSans-53" transform="scale(0.015625)"/>
      <path d="M 544 1381 
L 544 3500 
L 1119 3500 
L 1119 1403 
Q 1119 906 1312 657 
Q 1506 409 1894 409 
Q 2359 409 2629 706 
Q 2900 1003 2900 1516 
L 2900 3500 
L 3475 3500 
L 3475 0 
L 2900 0 
L 2900 538 
Q 2691 219 2414 64 
Q 2138 -91 1772 -91 
Q 1169 -91 856 284 
Q 544 659 544 1381 
z
M 1991 3584 
L 1991 3584 
z
" id="DejaVuSans-75" transform="scale(0.015625)"/>
      <path d="M 3116 1747 
Q 3116 2381 2855 2742 
Q 2594 3103 2138 3103 
Q 1681 3103 1420 2742 
Q 1159 2381 1159 1747 
Q 1159 1113 1420 752 
Q 1681 391 2138 391 
Q 2594 391 2855 752 
Q 3116 1113 3116 1747 
z
M 1159 2969 
Q 1341 3281 1617 3432 
Q 1894 3584 2278 3584 
Q 2916 3584 3314 3078 
Q 3713 2572 3713 1747 
Q 3713 922 3314 415 
Q 2916 -91 2278 -91 
Q 1894 -91 1617 61 
Q 1341 213 1159 525 
L 1159 0 
L 581 0 
L 581 4863 
L 1159 4863 
L 1159 2969 
z
" id="DejaVuSans-62" transform="scale(0.015625)"/>
      <path d="M 628 4666 
L 1259 4666 
L 1259 0 
L 628 0 
L 628 4666 
z
" id="DejaVuSans-49" transform="scale(0.015625)"/>
      <path d="M 3122 3366 
L 3122 2828 
Q 2878 2963 2633 3030 
Q 2388 3097 2138 3097 
Q 1578 3097 1268 2742 
Q 959 2388 959 1747 
Q 959 1106 1268 751 
Q 1578 397 2138 397 
Q 2388 397 2633 464 
Q 2878 531 3122 666 
L 3122 134 
Q 2881 22 2623 -34 
Q 2366 -91 2075 -91 
Q 1284 -91 818 406 
Q 353 903 353 1747 
Q 353 2603 823 3093 
Q 1294 3584 2113 3584 
Q 2378 3584 2631 3529 
Q 2884 3475 3122 3366 
z
" id="DejaVuSans-63" transform="scale(0.015625)"/>
      <path d="M 1959 3097 
Q 1497 3097 1228 2736 
Q 959 2375 959 1747 
Q 959 1119 1226 758 
Q 1494 397 1959 397 
Q 2419 397 2687 759 
Q 2956 1122 2956 1747 
Q 2956 2369 2687 2733 
Q 2419 3097 1959 3097 
z
M 1959 3584 
Q 2709 3584 3137 3096 
Q 3566 2609 3566 1747 
Q 3566 888 3137 398 
Q 2709 -91 1959 -91 
Q 1206 -91 779 398 
Q 353 888 353 1747 
Q 353 2609 779 3096 
Q 1206 3584 1959 3584 
z
" id="DejaVuSans-6f" transform="scale(0.015625)"/>
     </defs>
     <use xlink:href="#DejaVuSans-66"/>
     <use x="35.205078" xlink:href="#DejaVuSans-78"/>
     <use x="94.384766" xlink:href="#DejaVuSans-53"/>
     <use x="157.861328" xlink:href="#DejaVuSans-75"/>
     <use x="221.240234" xlink:href="#DejaVuSans-62"/>
     <use x="284.716797" xlink:href="#DejaVuSans-49"/>
     <use x="314.208984" xlink:href="#DejaVuSans-6e"/>
     <use x="377.587891" xlink:href="#DejaVuSans-73"/>
     <use x="429.6875" xlink:href="#DejaVuSans-74"/>
     <use x="468.896484" xlink:href="#DejaVuSans-72"/>
     <use x="510.009766" xlink:href="#DejaVuSans-75"/>
     <use x="573.388672" xlink:href="#DejaVuSans-63"/>
     <use x="628.369141" xlink:href="#DejaVuSans-74"/>
     <use x="667.578125" xlink:href="#DejaVuSans-6f"/>
     <use x="728.759766" xlink:href="#DejaVuSans-72"/>
    </g>
   </g>
   <g id="text_6">
    <!-- 5% -->
    <g transform="translate(270.400598 127.072143)scale(0.14 -0.14)">
     <use xlink:href="#DejaVuSans-35"/>
     <use x="63.623047" xlink:href="#DejaVuSans-25"/>
    </g>
   </g>
   <g id="text_7">
    <!-- fxSubInstructors -->
    <g transform="translate(290.592619 59.83736)scale(0.14 -0.14)">
     <use xlink:href="#DejaVuSans-66"/>
     <use x="35.205078" xlink:href="#DejaVuSans-78"/>
     <use x="94.384766" xlink:href="#DejaVuSans-53"/>
     <use x="157.861328" xlink:href="#DejaVuSans-75"/>
     <use x="221.240234" xlink:href="#DejaVuSans-62"/>
     <use x="284.716797" xlink:href="#DejaVuSans-49"/>
     <use x="314.208984" xlink:href="#DejaVuSans-6e"/>
     <use x="377.587891" xlink:href="#DejaVuSans-73"/>
     <use x="429.6875" xlink:href="#DejaVuSans-74"/>
     <use x="468.896484" xlink:href="#DejaVuSans-72"/>
     <use x="510.009766" xlink:href="#DejaVuSans-75"/>
     <use x="573.388672" xlink:href="#DejaVuSans-63"/>
     <use x="628.369141" xlink:href="#DejaVuSans-74"/>
     <use x="667.578125" xlink:href="#DejaVuSans-6f"/>
     <use x="728.759766" xlink:href="#DejaVuSans-72"/>
     <use x="769.873047" xlink:href="#DejaVuSans-73"/>
    </g>
   </g>
   <g id="text_8">
    <!-- 5% -->
    <g transform="translate(252.030431 113.725435)scale(0.14 -0.14)">
     <use xlink:href="#DejaVuSans-35"/>
     <use x="63.623047" xlink:href="#DejaVuSans-25"/>
    </g>
   </g>
   <g id="text_9">
    <!-- fxInstructor -->
    <g transform="translate(41.407526 256.599485)scale(0.14 -0.14)">
     <use xlink:href="#DejaVuSans-66"/>
     <use x="35.205078" xlink:href="#DejaVuSans-78"/>
     <use x="94.384766" xlink:href="#DejaVuSans-49"/>
     <use x="123.876953" xlink:href="#DejaVuSans-6e"/>
     <use x="187.255859" xlink:href="#DejaVuSans-73"/>
     <use x="239.355469" xlink:href="#DejaVuSans-74"/>
     <use x="278.564453" xlink:href="#DejaVuSans-72"/>
     <use x="319.677734" xlink:href="#DejaVuSans-75"/>
     <use x="383.056641" xlink:href="#DejaVuSans-63"/>
     <use x="438.037109" xlink:href="#DejaVuSans-74"/>
     <use x="477.246094" xlink:href="#DejaVuSans-6f"/>
     <use x="538.427734" xlink:href="#DejaVuSans-72"/>
    </g>
   </g>
   <g id="text_10">
    <!-- 80% -->
    <g transform="translate(155.912653 221.05023)scale(0.14 -0.14)">
     <defs>
      <path d="M 2034 2216 
Q 1584 2216 1326 1975 
Q 1069 1734 1069 1313 
Q 1069 891 1326 650 
Q 1584 409 2034 409 
Q 2484 409 2743 651 
Q 3003 894 3003 1313 
Q 3003 1734 2745 1975 
Q 2488 2216 2034 2216 
z
M 1403 2484 
Q 997 2584 770 2862 
Q 544 3141 544 3541 
Q 544 4100 942 4425 
Q 1341 4750 2034 4750 
Q 2731 4750 3128 4425 
Q 3525 4100 3525 3541 
Q 3525 3141 3298 2862 
Q 3072 2584 2669 2484 
Q 3125 2378 3379 2068 
Q 3634 1759 3634 1313 
Q 3634 634 3220 271 
Q 2806 -91 2034 -91 
Q 1263 -91 848 271 
Q 434 634 434 1313 
Q 434 1759 690 2068 
Q 947 2378 1403 2484 
z
M 1172 3481 
Q 1172 3119 1398 2916 
Q 1625 2713 2034 2713 
Q 2441 2713 2670 2916 
Q 2900 3119 2900 3481 
Q 2900 3844 2670 4047 
Q 2441 4250 2034 4250 
Q 1625 4250 1398 4047 
Q 1172 3844 1172 3481 
z
" id="DejaVuSans-38" transform="scale(0.015625)"/>
      <path d="M 2034 4250 
Q 1547 4250 1301 3770 
Q 1056 3291 1056 2328 
Q 1056 1369 1301 889 
Q 1547 409 2034 409 
Q 2525 409 2770 889 
Q 3016 1369 3016 2328 
Q 3016 3291 2770 3770 
Q 2525 4250 2034 4250 
z
M 2034 4750 
Q 2819 4750 3233 4129 
Q 3647 3509 3647 2328 
Q 3647 1150 3233 529 
Q 2819 -91 2034 -91 
Q 1250 -91 836 529 
Q 422 1150 422 2328 
Q 422 3509 836 4129 
Q 1250 4750 2034 4750 
z
" id="DejaVuSans-30" transform="scale(0.015625)"/>
     </defs>
     <use xlink:href="#DejaVuSans-38"/>
     <use x="63.623047" xlink:href="#DejaVuSans-30"/>
     <use x="127.246094" xlink:href="#DejaVuSans-25"/>
    </g>
   </g>
   <g id="text_11">
    <!-- fxPartner Shares from an fxSubCourse -->
    <g transform="translate(75.155625 18.472)scale(0.168 -0.168)">
     <defs>
      <path id="DejaVuSans-20" transform="scale(0.015625)"/>
      <path d="M 3513 2113 
L 3513 0 
L 2938 0 
L 2938 2094 
Q 2938 2591 2744 2837 
Q 2550 3084 2163 3084 
Q 1697 3084 1428 2787 
Q 1159 2491 1159 1978 
L 1159 0 
L 581 0 
L 581 4863 
L 1159 4863 
L 1159 2956 
Q 1366 3272 1645 3428 
Q 1925 3584 2291 3584 
Q 2894 3584 3203 3211 
Q 3513 2838 3513 2113 
z
" id="DejaVuSans-68" transform="scale(0.015625)"/>
      <path d="M 3328 2828 
Q 3544 3216 3844 3400 
Q 4144 3584 4550 3584 
Q 5097 3584 5394 3201 
Q 5691 2819 5691 2113 
L 5691 0 
L 5113 0 
L 5113 2094 
Q 5113 2597 4934 2840 
Q 4756 3084 4391 3084 
Q 3944 3084 3684 2787 
Q 3425 2491 3425 1978 
L 3425 0 
L 2847 0 
L 2847 2094 
Q 2847 2600 2669 2842 
Q 2491 3084 2119 3084 
Q 1678 3084 1418 2786 
Q 1159 2488 1159 1978 
L 1159 0 
L 581 0 
L 581 3500 
L 1159 3500 
L 1159 2956 
Q 1356 3278 1631 3431 
Q 1906 3584 2284 3584 
Q 2666 3584 2933 3390 
Q 3200 3197 3328 2828 
z
" id="DejaVuSans-6d" transform="scale(0.015625)"/>
      <path d="M 4122 4306 
L 4122 3641 
Q 3803 3938 3442 4084 
Q 3081 4231 2675 4231 
Q 1875 4231 1450 3742 
Q 1025 3253 1025 2328 
Q 1025 1406 1450 917 
Q 1875 428 2675 428 
Q 3081 428 3442 575 
Q 3803 722 4122 1019 
L 4122 359 
Q 3791 134 3420 21 
Q 3050 -91 2638 -91 
Q 1578 -91 968 557 
Q 359 1206 359 2328 
Q 359 3453 968 4101 
Q 1578 4750 2638 4750 
Q 3056 4750 3426 4639 
Q 3797 4528 4122 4306 
z
" id="DejaVuSans-43" transform="scale(0.015625)"/>
     </defs>
     <use xlink:href="#DejaVuSans-66"/>
     <use x="35.205078" xlink:href="#DejaVuSans-78"/>
     <use x="94.384766" xlink:href="#DejaVuSans-50"/>
     <use x="150.1875" xlink:href="#DejaVuSans-61"/>
     <use x="211.466797" xlink:href="#DejaVuSans-72"/>
     <use x="252.580078" xlink:href="#DejaVuSans-74"/>
     <use x="291.789062" xlink:href="#DejaVuSans-6e"/>
     <use x="355.167969" xlink:href="#DejaVuSans-65"/>
     <use x="416.691406" xlink:href="#DejaVuSans-72"/>
     <use x="457.804688" xlink:href="#DejaVuSans-20"/>
     <use x="489.591797" xlink:href="#DejaVuSans-53"/>
     <use x="553.068359" xlink:href="#DejaVuSans-68"/>
     <use x="616.447266" xlink:href="#DejaVuSans-61"/>
     <use x="677.726562" xlink:href="#DejaVuSans-72"/>
     <use x="716.589844" xlink:href="#DejaVuSans-65"/>
     <use x="778.113281" xlink:href="#DejaVuSans-73"/>
     <use x="830.212891" xlink:href="#DejaVuSans-20"/>
     <use x="862" xlink:href="#DejaVuSans-66"/>
     <use x="897.205078" xlink:href="#DejaVuSans-72"/>
     <use x="936.068359" xlink:href="#DejaVuSans-6f"/>
     <use x="997.25" xlink:href="#DejaVuSans-6d"/>
     <use x="1094.662109" xlink:href="#DejaVuSans-20"/>
     <use x="1126.449219" xlink:href="#DejaVuSans-61"/>
     <use x="1187.728516" xlink:href="#DejaVuSans-6e"/>
     <use x="1251.107422" xlink:href="#DejaVuSans-20"/>
     <use x="1282.894531" xlink:href="#DejaVuSans-66"/>
     <use x="1318.099609" xlink:href="#DejaVuSans-78"/>
     <use x="1377.279297" xlink:href="#DejaVuSans-53"/>
     <use x="1440.755859" xlink:href="#DejaVuSans-75"/>
     <use x="1504.134766" xlink:href="#DejaVuSans-62"/>
     <use x="1567.611328" xlink:href="#DejaVuSans-43"/>
     <use x="1637.435547" xlink:href="#DejaVuSans-6f"/>
     <use x="1698.617188" xlink:href="#DejaVuSans-75"/>
     <use x="1761.996094" xlink:href="#DejaVuSans-72"/>
     <use x="1803.109375" xlink:href="#DejaVuSans-73"/>
     <use x="1855.208984" xlink:href="#DejaVuSans-65"/>
    </g>
   </g>
  </g>
 </g>
</svg>
