<svg id="Layer_1" data-name="Layer 1" xmlns="http://www.w3.org/2000/svg" viewBox="0 0 80 80"><defs><style>.cls-1{fill:#393939;}</style></defs><title>course</title><path class="cls-1" d="M40,0A40,40,0,1,0,80,40,40,40,0,0,0,40,0Zm0,77A37,37,0,1,1,77,40,37,37,0,0,1,40,77Z"/><path class="cls-1" d="M61.2,21.6c-7.9-3-15.6-1.6-19.7-.5l-1.5.5-1.5-.5c-4.1-1.1-11.8-2.5-19.7.5a3.4,3.4,0,0,0-2.3,3.2V57.2a2.6,2.6,0,0,0,1.1,2.1,2.9,2.9,0,0,0,2.4.2c7.6-2.8,15.2-1.1,18.5,0h0a5.1,5.1,0,0,0,3,0h0c3.3-1.1,10.9-2.8,18.5,0a2.9,2.9,0,0,0,2.4-.2,2.6,2.6,0,0,0,1.1-2.1V24.8A3.4,3.4,0,0,0,61.2,21.6ZM38.5,56.3a32.5,32.5,0,0,0-18.9.2V24.8c0-.2.2-.3.4-.4,7.6-2.9,15.2-1.2,18.5-.1Zm21.9.2a32.5,32.5,0,0,0-18.9-.2v-32c3.3-1.1,10.9-2.8,18.5.1.2.1.4.2.4.4Z"/></svg>