<svg id="Layer_1" data-name="Layer 1" xmlns="http://www.w3.org/2000/svg" viewBox="0 0 32 32"><defs><style>.cls-1{fill:#fb2d47;}.cls-2{fill:#fff;}</style></defs><title>w</title><rect class="cls-1" width="32" height="32" rx="16"/><path class="cls-2" d="M16,8a13.8,13.8,0,0,0-9.1,3.4,1,1,0,0,0-.1,1.4h0a1.1,1.1,0,0,0,1.4.1,11.9,11.9,0,0,1,15.6,0,1.1,1.1,0,0,0,1.4-.1h0a1,1,0,0,0-.1-1.4A13.8,13.8,0,0,0,16,8Z"/><path class="cls-2" d="M16,12a9.6,9.6,0,0,0-6.2,2.2,1,1,0,0,0-.1,1.5h0a1,1,0,0,0,1.3.1,7.8,7.8,0,0,1,10,0,1,1,0,0,0,1.3-.1h0a1,1,0,0,0-.1-1.5A9.6,9.6,0,0,0,16,12Z"/><path class="cls-2" d="M16,16a6.7,6.7,0,0,0-3.4,1,1,1,0,0,0-.1,1.5h0a.9.9,0,0,0,1.3.1A4,4,0,0,1,16,18a4,4,0,0,1,2.2.6.9.9,0,0,0,1.3-.1h0a1,1,0,0,0-.1-1.5A6.7,6.7,0,0,0,16,16Z"/><path class="cls-2" d="M16,20h0a2,2,0,0,0,0,4h0a2,2,0,0,0,0-4Z"/></svg>