<svg id="Layer_1" data-name="Layer 1" xmlns="http://www.w3.org/2000/svg" viewBox="0 0 32 32"><title>w</title><path d="M16,11.5A4.5,4.5,0,1,1,11.5,16,4.5,4.5,0,0,1,16,11.5m0-2A6.5,6.5,0,1,0,22.5,16,6.5,6.5,0,0,0,16,9.5Z"/><path d="M21.5,2h.3a.7.7,0,0,1,.4.6l.4,3.5A3.1,3.1,0,0,0,23.5,8l.5.5a3.1,3.1,0,0,0,1.8.9l3.5.4a.7.7,0,0,1,.6.4.8.8,0,0,1-.1.8l-2.2,2.8a2.6,2.6,0,0,0-.7,1.8.9.9,0,0,1,0,.8,2.6,2.6,0,0,0,.7,1.8L29.8,21a.8.8,0,0,1,.1.8.7.7,0,0,1-.6.4l-3.5.4a3.1,3.1,0,0,0-1.8.9l-.5.5a3.1,3.1,0,0,0-.9,1.8l-.4,3.5a.7.7,0,0,1-.4.6h-.3l-.5-.2-2.8-2.2a2.8,2.8,0,0,0-1.7-.7h-1a2.8,2.8,0,0,0-1.7.7L11,29.8l-.5.2h-.3a.7.7,0,0,1-.4-.6l-.4-3.5A3.1,3.1,0,0,0,8.5,24L8,23.5a3.1,3.1,0,0,0-1.8-.9l-3.5-.4a.7.7,0,0,1-.6-.4.8.8,0,0,1,.1-.8l2.2-2.8A2.5,2.5,0,0,0,5,16.4v-.8a2.5,2.5,0,0,0-.6-1.8L2.2,11a.8.8,0,0,1-.1-.8.7.7,0,0,1,.6-.4l3.5-.4A3.1,3.1,0,0,0,8,8.5L8.5,8a3.1,3.1,0,0,0,.9-1.8l.4-3.5a.7.7,0,0,1,.4-.6h.3l.5.2,2.8,2.2a2.8,2.8,0,0,0,1.7.7h1a2.8,2.8,0,0,0,1.7-.7L21,2.2l.5-.2m-11-2L9.5.2h0A2.7,2.7,0,0,0,7.8,2.5L7.4,6a.8.8,0,0,1-.2.5l-.7.7L6,7.4l-3.5.4A2.7,2.7,0,0,0,.2,9.5h0a2.6,2.6,0,0,0,.4,2.7L2.9,15a1.3,1.3,0,0,1,.1.6V16H3v.4a1.3,1.3,0,0,1-.1.6L.6,19.8a2.6,2.6,0,0,0-.4,2.7h0a2.7,2.7,0,0,0,2.3,1.7l3.5.4.5.2a2.3,2.3,0,0,0,.7.7.8.8,0,0,1,.2.5l.4,3.5a2.7,2.7,0,0,0,1.7,2.3h0l1,.2a2.7,2.7,0,0,0,1.7-.6L15,29.1l.5-.2h1l.5.2,2.8,2.3a2.7,2.7,0,0,0,1.7.6l1-.2h0a2.7,2.7,0,0,0,1.7-2.3l.4-3.5a.8.8,0,0,1,.2-.5,2.3,2.3,0,0,0,.7-.7l.5-.2,3.5-.4a2.7,2.7,0,0,0,2.3-1.7h0a2.6,2.6,0,0,0-.4-2.7L29.1,17a1.4,1.4,0,0,1-.2-.6c.1-.1.1-.2.1-.4h0c0-.2,0-.3-.1-.4a1.4,1.4,0,0,1,.2-.6l2.3-2.8a2.6,2.6,0,0,0,.4-2.7h0a2.7,2.7,0,0,0-2.3-1.7L26,7.4l-.5-.2a2.3,2.3,0,0,0-.7-.7.8.8,0,0,1-.2-.5l-.4-3.5A2.7,2.7,0,0,0,22.5.2h0l-1-.2a2.7,2.7,0,0,0-1.7.6L17,2.9l-.5.2h-1L15,2.9,12.2.6A2.7,2.7,0,0,0,10.5,0Z"/></svg>