<?xml version="1.0" encoding="iso-8859-1"?>
<!-- Generator: Adobe Illustrator 19.0.0, SVG Export Plug-In . SVG Version: 6.00 Build 0)  -->
<svg version="1.1" id="Capa_1" xmlns="http://www.w3.org/2000/svg" xmlns:xlink="http://www.w3.org/1999/xlink" x="0px" y="0px"
	 viewBox="0 0 512 512" style="enable-background:new 0 0 512 512;" xml:space="preserve">
<g>
	<g>
		<path d="M256,0C116.513,0,0,116.14,0,256c0,67.468,26.88,131.504,75.688,180.312C124.496,485.12,188.532,512,256,512
			c139.41,0,256-116.387,256-256C512,116.518,395.865,0,256,0z M256,482c-59.455,0-115.957-23.759-159.099-66.901
			C11.255,329.453,7.845,197.225,86.639,107.852l43.538,43.538C108.106,154.256,91,173.161,91,196v120c0,24.813,20.187,45,45,45h150
			c14.643,0,27.67-7.033,35.893-17.895l82.257,82.257C362.608,461.985,310.552,482,256,482z M300.034,321.247
			C297.9,326.934,292.424,331,286,331H136c-8.271,0-15-6.729-15-15V196c0-8.271,6.729-15,15-15h23.787L300.034,321.247z
			 M202.213,181H286c8.271,0,15,6.729,15,15v83.787L202.213,181z M425.362,404.148l-63.394-63.394l37.324,18.662
			C409.259,364.4,421,357.127,421,346V166c0-11.145-11.755-18.393-21.708-13.416l-69.167,34.584C326.008,166.57,307.791,151,286,151
			H172.213l-64.361-64.361C150.677,48.884,203.334,29.99,256,29.99c57.246,0,114.492,22.304,159.1,66.911
			C500.745,182.547,504.155,314.775,425.362,404.148z M331,291.73v-71.459l60-30V321.73L331,291.73z"/>
	</g>
</g>
<g>
</g>
<g>
</g>
<g>
</g>
<g>
</g>
<g>
</g>
<g>
</g>
<g>
</g>
<g>
</g>
<g>
</g>
<g>
</g>
<g>
</g>
<g>
</g>
<g>
</g>
<g>
</g>
<g>
</g>
</svg>
