<?xml version="1.0" encoding="utf-8"?>
<!-- Designed by Vexels.com - 2016 All Rights Reserved - https://vexels.com/terms-and-conditions/  -->

<svg version="1.0" id="Capa_1" xmlns="http://www.w3.org/2000/svg" xmlns:xlink="http://www.w3.org/1999/xlink" x="0px" y="0px"
	 width="1200px" height="1200px" viewBox="0 0 1200 1200" enable-background="new 0 0 1200 1200" xml:space="preserve">
<g>
	<path fill-rule="evenodd" clip-rule="evenodd" fill="#656568" d="M501.789,848.588H603.06h1.545H705.88
		c-2.276,58.44,4.839,127.694,42.929,168.018H604.605h-1.545H458.864C496.948,976.282,504.059,907.028,501.789,848.588z"/>
	<path fill-rule="evenodd" clip-rule="evenodd" fill="#36343A" d="M55.616,160.828H1144.38c18.488,0,33.599,15.12,33.599,33.607
		v681.032c0,18.489-15.11,33.611-33.599,33.611H55.616c-18.474,0-33.594-15.122-33.594-33.611V194.434
		C22.022,175.948,37.142,160.828,55.616,160.828z"/>
	<path fill-rule="evenodd" clip-rule="evenodd" fill="#54C5D1" d="M58.109,198.016h1076.637c1.161,0,2.113,0.928,2.113,2.093
		v610.089c0,1.159-0.952,2.093-2.113,2.093H58.109c-1.169,0-2.107-0.934-2.107-2.093V200.109
		C56.002,198.944,56.94,198.016,58.109,198.016z"/>
	<path fill-rule="evenodd" clip-rule="evenodd" fill="#8FD5DD" d="M58.234,198.016h1076.388
		c19.079,0-163.083,170.732-512.897,380.994C346.07,744.693,54.467,817.285,56.002,810.198V200.109
		C56.002,198.944,57.006,198.016,58.234,198.016z"/>
	<path fill-rule="evenodd" clip-rule="evenodd" fill="#00BDEB" d="M103.003,872.189c8.467,0,15.371-7.047,15.371-15.7
		c0-8.66-6.904-15.705-15.371-15.705c-8.467,0-15.367,7.045-15.367,15.705C87.636,865.142,94.536,872.189,103.003,872.189z"/>
	<path fill-rule="evenodd" clip-rule="evenodd" fill="#919697" d="M162.476,872.189c8.469,0,15.375-7.047,15.375-15.7
		c0-8.66-6.906-15.705-15.375-15.705c-8.457,0-15.365,7.045-15.365,15.705C147.111,865.142,154.019,872.189,162.476,872.189z"/>
	<path fill-rule="evenodd" clip-rule="evenodd" fill="#919697" d="M221.29,872.189c8.469,0,15.371-7.047,15.371-15.7
		c0-8.66-6.902-15.705-15.371-15.705c-8.465,0-15.375,7.045-15.375,15.705C205.915,865.142,212.825,872.189,221.29,872.189z"/>
	<path fill-rule="evenodd" clip-rule="evenodd" fill="#36343A" d="M378.873,978.689H849.33c16.633,0,30.236,13.591,30.236,30.24
		v18.548c0,6.424-5.255,11.695-11.679,11.695H358.283c-5.311,0-9.656-4.355-9.656-9.642v-20.602
		C348.627,992.28,362.243,978.689,378.873,978.689z"/>
</g>
</svg>
